{"title":"BabyGotBoobs.Kayla.Kayden.XXX.2014-ViK","uid":10793561,"size":458137319,"categoryP":"porn","categoryS":"movies","magnet":"?xt=urn:btih:9427a12dbb64caa5feb07858f8a65381d8f55bda&amp;dn=BabyGotBoobs.Kayla.Kayden.XXX.2014-ViK&amp;tr=udp%3A%2F%2Ftracker.openbittorrent.com%3A80&amp;tr=udp%3A%2F%2Fopen.demonii.com%3A1337&amp;tr=udp%3A%2F%2Ftracker.coppersurfer.tk%3A6969&amp;tr=udp%3A%2F%2Fexodus.desync.com%3A6969","seeders":0,"leechers":1,"uploader":"iH2OSO4","files":-1,"time":1408281061,"description":"General\nBabyGotBoobs.Kayla.Kayden.XXX.2014-ViK.mp4\n\nSOURCE: &lt;a href=&quot; http://nuscotower.com/i/265695.html&quot; rel=&quot;nofollow&quot; target=&quot;_NEW&quot;&gt; http://nuscotower.com/i/265695.html&lt;/a&gt;\n\nFormat                           : MPEG-4\nFormat profile                   : Base Media\nCodec ID                         : isom\nFile size                        : 437 MiB\nDuration                         : 36mn 41s\nOverall bit rate                 : 1 664 Kbps\nEncoded date                     : UTC 2014-08-15 13:33:30\nTagged date                      : UTC 2014-08-15 13:33:30\nWriting application              : FormatFactory : www.pcfreetime.com\n\nVideo\nID                               : 1\nFormat                           : MPEG-4 Visual\nFormat profile                   : Simple@L1\nFormat settings, BVOP            : No\nFormat settings, QPel            : No\nFormat settings, GMC             : No warppoints\nFormat settings, Matrix          : Default (H.263)\nCodec ID                         : 20\nDuration                         : 36mn 41s\nBit rate mode                    : Variable\nBit rate                         : 1 536 Kbps\nMaximum bit rate                 : 3 211 Kbps\nWidth                            : 856 pixels\nHeight                           : 480 pixels\nDisplay aspect ratio             : 16:9\nFrame rate mode                  : Constant\nFrame rate                       : 29.970 fps\nColor space                      : YUV\nChroma subsampling               : 4:2:0\nBit depth                        : 8 bits\nScan type                        : Progressive\nCompression mode                 : Lossy\nBits/(Pixel*Frame)               : 0.125\nStream size                      : 403 MiB (92%)\nWriting library                  : Lavc53.8.0\nEncoded date                     : UTC 2014-08-15 13:33:30\nTagged date                      : UTC 2014-08-15 13:33:49\n\nAudio\nID                               : 2\nFormat                           : AAC\nFormat/Info                      : Advanced Audio Codec\nFormat profile                   : LC\nCodec ID                         : 40\nDuration                         : 36mn 41s\nBit rate mode                    : Variable\nBit rate                         : 126 Kbps\nMaximum bit rate                 : 204 Kbps\nChannel(s)                       : 2 channels\nChannel positions                : Front: L R\nSampling rate                    : 44.1 KHz\nCompression mode                 : Lossy\nStream size                      : 33.0 MiB (8%)\nEncoded date                     : UTC 2014-08-15 13:33:43\nTagged date                      : UTC 2014-08-15 13:33:49\n","torrent":{"xt":"urn:btih:9427a12dbb64caa5feb07858f8a65381d8f55bda","amp;dn":"BabyGotBoobs.Kayla.Kayden.XXX.2014-ViK","amp;tr":["udp%3A%2F%2Ftracker.openbittorrent.com%3A80","udp%3A%2F%2Fopen.demonii.com%3A1337","udp%3A%2F%2Ftracker.coppersurfer.tk%3A6969","udp%3A%2F%2Fexodus.desync.com%3A6969"],"infoHash":"9427a12dbb64caa5feb07858f8a65381d8f55bda","infoHashBuffer":{"type":"Buffer","data":[148,39,161,45,187,100,202,165,254,176,120,88,248,166,83,129,216,245,91,218]},"announce":[],"urlList":[]}}